pinch_force_states
version=1
nRows=14
nColumns=45
inDegrees=yes

# SIMM Motion File Header:
name pinch_force_states
datacolumns 45
datarows 14
otherdata 1
range 0.00000000 0.00130000
endheader
time	deviation	flexion	wrist_hand_r1	wrist_hand_r3	cmc_flexion	cmc_abduction	mp_flexion	ip_flexion	deviation_u	flexion_u	wrist_hand_r1_u	wrist_hand_r3_u	cmc_flexion_u	cmc_abduction_u	mp_flexion_u	ip_flexion_u	ECRL.activation	ECRL.fiber_length	ECRB.activation	ECRB.fiber_length	ECU.activation	ECU.fiber_length	FCR.activation	FCR.fiber_length	FCU.activation	FCU.fiber_length	EPL.activation	EPL.fiber_length	EPB.activation	EPB.fiber_length	FPL.activation	FPL.fiber_length	APL.activation	APL.fiber_length	APB.activation	APB.fiber_length	FPB.activation	FPB.fiber_length	OPP.activation	OPP.fiber_length	ADPt.activation	ADPt.fiber_length	ADPo.activation	ADPo.fiber_length
      0.00000000	     -0.00042074	     -0.00015382	     -0.00057101	     -0.00007691	    -15.00041327	    -20.00029546	     20.00061225	     40.00073648	      0.00000000	      0.00000000	      0.00000000	      0.00000000	      0.00000000	      0.00000000	      0.00000000	      0.00000000	      0.01238483	      0.06436715	      0.36622056	      0.05554931	      0.99862122	      0.05972032	      0.01000000	      0.05034745	      0.60768366	      0.03007778	      0.47396701	      0.05163925	      0.07694563	      0.06439593	      1.00000000	      0.05387508	      0.01293340	      0.07101004	      0.08647987	      0.05354135	      0.12944159	      0.05023033	      0.51645636	      0.04493044	      0.99666356	      0.03818144	      0.87323913	      0.03148767
      0.00010000	     -0.00030547	     -0.00038035	     -0.00041457	     -0.00019017	    -15.00047550	    -19.99983635	     20.00078366	     40.00076293	      2.30147963	     -4.52555308	      3.12345175	     -2.26277654	     -1.23804256	      9.17339347	      3.41397839	      0.53983195	      0.01238483	      0.06436715	      0.36622056	      0.05554931	      0.99862122	      0.05972032	      0.01000000	      0.05034745	      0.60768366	      0.03007778	      0.47396701	      0.05163925	      0.07694563	      0.06439593	      1.00000000	      0.05387508	      0.01293340	      0.07101004	      0.08647987	      0.05354135	      0.12944159	      0.05023033	      0.51645636	      0.04493044	      0.99666356	      0.03818144	      0.87323913	      0.03148767
      0.00020000	      0.00003875	     -0.00105794	      0.00005259	     -0.00052897	    -15.00065954	    -19.99846258	     20.00129220	     40.00084657	      4.57890882	     -9.02128769	      6.21421843	     -4.51064385	     -2.43610997	     18.29287224	      6.74261587	      1.14320157	      0.01238483	      0.06436715	      0.36622056	      0.05554931	      0.99862122	      0.05972032	      0.01000000	      0.05034745	      0.60768366	      0.03007778	      0.47396701	      0.05163925	      0.07694563	      0.06439593	      1.00000000	      0.05387508	      0.01293340	      0.07101004	      0.08647987	      0.05354134	      0.12944159	      0.05023034	      0.51645636	      0.04493044	      0.99666356	      0.03818144	      0.87323913	      0.03148767
      0.00030000	      0.00060947	     -0.00218359	      0.00082713	     -0.00109179	    -15.00096139	    -19.99617964	     20.00212939	     40.00099360	      6.83115802	    -13.48645055	      9.27072358	     -6.74322527	     -3.59411072	     27.35637845	      9.98718016	      1.80728954	      0.01238483	      0.06436715	      0.36622056	      0.05554930	      0.99862122	      0.05972031	      0.01000000	      0.05034746	      0.60768366	      0.03007778	      0.47396701	      0.05163925	      0.07694563	      0.06439593	      1.00000000	      0.05387508	      0.01293340	      0.07101004	      0.08647987	      0.05354133	      0.12944159	      0.05023036	      0.51645636	      0.04493044	      0.99666356	      0.03818145	      0.87323913	      0.03148767
      0.00040000	      0.00140411	     -0.00375419	      0.00190555	     -0.00187709	    -15.00137703	    -19.99299323	     20.00328687	     40.00120996	      9.05713695	    -17.92030258	     12.29144578	     -8.96015129	     -4.71196515	     36.36190135	     13.14889168	      2.52936737	      0.01238483	      0.06436715	      0.36622056	      0.05554930	      0.99862122	      0.05972031	      0.01000000	      0.05034747	      0.60768366	      0.03007778	      0.47396701	      0.05163925	      0.07694563	      0.06439594	      1.00000000	      0.05387508	      0.01293340	      0.07101006	      0.08647987	      0.05354130	      0.12944159	      0.05023039	      0.51645636	      0.04493045	      0.99666356	      0.03818145	      0.87323913	      0.03148768
      0.00050000	      0.00241999	     -0.00576658	      0.00328418	     -0.00288329	    -15.00190244	    -19.98890926	     20.00475644	     40.00150132	     11.25579270	    -22.32211884	     15.27491606	    -11.16105942	     -5.78960512	     45.30747517	     16.22892663	      3.30679337	      0.01238483	      0.06436716	      0.36622056	      0.05554930	      0.99862122	      0.05972031	      0.01000000	      0.05034749	      0.60768366	      0.03007778	      0.47396701	      0.05163926	      0.07694563	      0.06439595	      1.00000000	      0.05387508	      0.01293340	      0.07101008	      0.08647987	      0.05354125	      0.12944159	      0.05023044	      0.51645636	      0.04493045	      0.99666356	      0.03818146	      0.87323913	      0.03148768
      0.00060000	      0.00365432	     -0.00821752	      0.00495924	     -0.00410876	    -15.00253361	    -19.98393380	     20.00652998	     40.00187308	     13.42610808	    -26.69118825	     18.21971583	    -13.34559412	     -6.82697368	     54.19117714	     19.22841972	      4.13700906	      0.01238483	      0.06436716	      0.36622056	      0.05554930	      0.99862122	      0.05972031	      0.01000000	      0.05034752	      0.60768366	      0.03007779	      0.47396701	      0.05163926	      0.07694563	      0.06439596	      1.00000000	      0.05387508	      0.01293340	      0.07101010	      0.08647987	      0.05354119	      0.12944159	      0.05023051	      0.51645636	      0.04493045	      0.99666356	      0.03818147	      0.87323913	      0.03148768
      0.00070000	      0.00510423	     -0.01110370	      0.00692679	     -0.00555185	    -15.00326649	    -19.97807315	     20.00859948	     40.00233039	     15.56710021	    -31.02681350	     21.12447497	    -15.51340675	     -7.82402482	     63.01112584	     22.14846647	      5.01753604	      0.01238483	      0.06436716	      0.36622056	      0.05554930	      0.99862122	      0.05972030	      0.01000000	      0.05034757	      0.60768366	      0.03007779	      0.47396701	      0.05163927	      0.07694563	      0.06439598	      1.00000000	      0.05387509	      0.01293340	      0.07101014	      0.08647987	      0.05354110	      0.12944159	      0.05023060	      0.51645636	      0.04493046	      0.99666356	      0.03818148	      0.87323913	      0.03148768
      0.00080000	      0.00676673	     -0.01442174	      0.00918276	     -0.00721087	    -15.00409707	    -19.97133376	     20.01095706	     40.00287818	     17.67781931	    -35.32831082	     23.98787024	    -17.66415541	     -8.78072330	     71.76547965	     24.99012534	      5.94597327	      0.01238483	      0.06436716	      0.36622056	      0.05554929	      0.99862122	      0.05972030	      0.01000000	      0.05034763	      0.60768366	      0.03007779	      0.47396701	      0.05163928	      0.07694563	      0.06439601	      1.00000000	      0.05387509	      0.01293340	      0.07101019	      0.08647987	      0.05354098	      0.12944159	      0.05023072	      0.51645636	      0.04493046	      0.99666356	      0.03818150	      0.87323913	      0.03148769
      0.00090000	      0.00863876	     -0.01816820	      0.01172294	     -0.00908410	    -15.00502129	    -19.96372230	     20.01359492	     40.00352111	     19.75734762	    -39.59500987	     26.80862395	    -19.79750494	     -9.69704447	     80.45243544	     27.75441955	      6.91999465	      0.01238483	      0.06436717	      0.36622056	      0.05554929	      0.99862122	      0.05972029	      0.01000000	      0.05034770	      0.60768366	      0.03007779	      0.47396701	      0.05163930	      0.07694563	      0.06439604	      1.00000000	      0.05387510	      0.01293340	      0.07101025	      0.08647987	      0.05354083	      0.12944159	      0.05023087	      0.51645636	      0.04493047	      0.99666356	      0.03818152	      0.87323913	      0.03148770
      0.00100000	      0.01071713	     -0.02233956	      0.01454302	     -0.01116978	    -15.00603513	    -19.95524558	     20.01650539	     40.00426362	     21.80479851	    -43.82625354	     29.58550270	    -21.91312677	    -10.57297413	     89.07022736	     30.44233870	      7.93734684	      0.01238483	      0.06436717	      0.36622056	      0.05554928	      0.99862122	      0.05972028	      0.01000000	      0.05034780	      0.60768366	      0.03007780	      0.47396701	      0.05163931	      0.07694563	      0.06439608	      1.00000000	      0.05387511	      0.01293340	      0.07101033	      0.08647987	      0.05354065	      0.12944159	      0.05023104	      0.51645636	      0.04493048	      0.99666356	      0.03818155	      0.87323913	      0.03148771
      0.00110000	      0.01299862	     -0.02693225	      0.01763854	     -0.01346613	    -15.00713454	    -19.94591061	     20.01968088	     40.00510995	     23.81931568	    -48.02139779	     32.31731643	    -24.01069889	    -11.40850846	     97.61712580	     33.05484029	      8.99584733	      0.01238483	      0.06436718	      0.36622056	      0.05554927	      0.99862122	      0.05972027	      0.01000000	      0.05034791	      0.60768366	      0.03007780	      0.47396701	      0.05163934	      0.07694563	      0.06439613	      1.00000000	      0.05387512	      0.01293340	      0.07101043	      0.08647987	      0.05354043	      0.12944159	      0.05023125	      0.51645636	      0.04493049	      0.99666356	      0.03818159	      0.87323913	      0.03148772
      0.00120000	      0.01547987	     -0.03194262	      0.02100494	     -0.01597131	    -15.00831548	    -19.93572457	     20.02311388	     40.00606409	     25.80007249	    -52.17981152	     35.00291744	    -26.08990576	    -12.20365392	    106.09143645	     35.59285104	     10.09338266	      0.01238483	      0.06436719	      0.36622056	      0.05554926	      0.99862122	      0.05972025	      0.01000000	      0.05034805	      0.60768366	      0.03007781	      0.47396701	      0.05163936	      0.07694563	      0.06439619	      1.00000000	      0.05387513	      0.01293340	      0.07101054	      0.08647987	      0.05354018	      0.12944159	      0.05023148	      0.51645636	      0.04493050	      0.99666356	      0.03818163	      0.87323913	      0.03148773
      0.00130000	      0.01815748	     -0.03736697	      0.02463755	     -0.01868348	    -15.00957392	    -19.92469480	     20.02679699	     40.00712986	     27.74627135	    -56.30087640	     37.64119967	    -28.15043820	    -12.95842723	    114.49149942	     38.05726816	     11.22790674	      0.01238483	      0.06436719	      0.36622056	      0.05554925	      0.99862122	      0.05972024	      0.01000000	      0.05034820	      0.60768366	      0.03007781	      0.47396701	      0.05163939	      0.07694563	      0.06439626	      1.00000000	      0.05387515	      0.01293340	      0.07101066	      0.08647987	      0.05353989	      0.12944159	      0.05023175	      0.51645636	      0.04493051	      0.99666356	      0.03818168	      0.87323913	      0.03148775
